<svg width="155" height="45" viewBox="0 0 155 45" fill="none" xmlns="http://www.w3.org/2000/svg">
<g clip-path="url(#clip0_2046_494)">
<path d="M53.3448 29.35C53.3602 29.4532 53.4147 29.5476 53.4982 29.6156C53.5816 29.6836 53.6883 29.7205 53.7983 29.7195H56.914C56.9687 29.7272 57.0246 29.7233 57.0776 29.708C57.1305 29.6927 57.1792 29.6664 57.2201 29.631C57.2609 29.5956 57.2929 29.552 57.3137 29.5034C57.3345 29.4548 57.3436 29.4024 57.3403 29.35C57.3458 29.2739 57.3334 29.1976 57.304 29.1266L51.2133 12.308C51.1887 12.1994 51.1241 12.1025 51.031 12.0348C50.938 11.9672 50.8226 11.933 50.7054 11.9386H46.9276C46.8368 11.9358 46.7475 11.9614 46.6737 12.0116C46.6439 12.0334 46.6198 12.0614 46.6033 12.0934C46.5867 12.1255 46.5782 12.1607 46.5784 12.1963L46.6192 12.308L53.3448 29.35Z" fill="#C49E69"/>
<path d="M64.3062 12.0328C64.2674 11.9988 64.2215 11.9729 64.1716 11.9566C64.1216 11.9403 64.0686 11.9341 64.016 11.9383H60.2835C60.1669 11.9329 60.0521 11.9672 59.9598 12.0349C59.8675 12.1027 59.8038 12.1994 59.7802 12.3077L56.3516 21.8619C56.301 21.9393 56.2742 22.0286 56.2742 22.1197C56.2742 22.2107 56.301 22.3 56.3516 22.3774L58.016 27.0643C58.0976 27.2103 58.1883 27.2834 58.2926 27.2834C58.3181 27.2834 58.3434 27.2785 58.3668 27.2689C58.3902 27.2592 58.4113 27.2452 58.4287 27.2275C58.4727 27.1804 58.5052 27.1246 58.5239 27.0643L64.3289 12.3077C64.3652 12.1831 64.3652 12.0929 64.3062 12.0328Z" fill="#C49E69"/>
<path d="M82.7052 27.1372C82.7431 27.1046 82.7735 27.0648 82.7943 27.0204C82.815 26.976 82.8257 26.928 82.8257 26.8795C82.8257 26.8309 82.815 26.7829 82.7943 26.7385C82.7735 26.6941 82.7431 26.6543 82.7052 26.6217L80.7596 24.8088C80.7198 24.7728 80.6726 24.745 80.6209 24.727C80.5692 24.7091 80.5141 24.7016 80.4592 24.7048C80.4042 24.708 80.3506 24.722 80.3016 24.7458C80.2526 24.7696 80.2094 24.8028 80.1746 24.8432C78.9342 25.9879 77.2758 26.6357 75.5442 26.6518C74.5718 26.6821 73.6109 26.4449 72.7778 25.9687C72.0071 25.4901 71.4301 24.7785 71.1406 23.9496C70.9971 23.5507 70.9057 23.1367 70.8685 22.7167C70.8186 22.2356 70.7914 21.6041 70.7914 20.8136C70.7914 19.8341 70.8186 19.0694 70.8685 18.5282C70.9029 18.0796 70.9819 17.6352 71.1043 17.2007C71.3067 16.6303 71.6468 16.1125 72.0975 15.6885C72.5426 15.2845 73.1047 15.0153 73.712 14.9153C73.8091 14.9076 73.8993 14.8651 73.9642 14.7964C74.0292 14.7277 74.0639 14.638 74.0612 14.5458V11.9683C74.0609 11.8733 74.0274 11.7812 73.966 11.7062C73.935 11.6712 73.8961 11.6434 73.8521 11.6248C73.8081 11.6061 73.7602 11.5973 73.712 11.5988H73.6349C72.1514 11.7295 70.7368 12.2536 69.5533 13.111C68.4041 13.9713 67.5567 15.141 67.1225 16.4661C66.6773 17.8766 66.4797 19.3467 66.5375 20.8179C66.5274 21.638 66.5789 22.4577 66.6917 23.2709C66.7831 23.9167 66.9349 24.5536 67.1452 25.174C67.6082 26.671 68.6155 27.9645 69.9887 28.8255C71.5168 29.7249 73.2927 30.1735 75.0907 30.1143C76.579 30.1325 78.0557 29.8635 79.4308 29.3239C80.6862 28.8449 81.8071 28.0963 82.7052 27.1372Z" fill="#C49E69"/>
<path d="M75.9297 14.9286C76.5629 15.0233 77.1536 15.2895 77.6308 15.695C78.1079 16.1005 78.4511 16.628 78.619 17.214C78.7836 17.7526 78.8616 18.3116 78.8503 18.8722C78.8557 18.9023 78.8535 18.9332 78.8438 18.9623C78.8342 18.9914 78.8174 19.018 78.7948 19.0398C78.7722 19.0616 78.7446 19.078 78.714 19.0877C78.6835 19.0974 78.6509 19.1001 78.619 19.0956H72.7778C72.6786 19.0937 72.582 19.1258 72.5057 19.1858C72.4652 19.2211 72.4337 19.2644 72.4133 19.3128C72.3928 19.3611 72.3841 19.4131 72.3878 19.4651V21.6775C72.3912 21.7745 72.4334 21.8666 72.5058 21.9352C72.5782 22.0038 72.6754 22.0437 72.7778 22.0469H82.7551C82.8682 22.0536 82.9798 22.0199 83.068 21.9524C83.1086 21.9183 83.1404 21.8757 83.1608 21.828C83.1813 21.7803 83.1899 21.7288 83.1859 21.6775C83.1981 20.6119 83.1511 19.5465 83.0453 18.4856C82.9685 17.7911 82.8165 17.1058 82.5918 16.4407C82.1541 15.1149 81.3056 13.9444 80.1565 13.0813C78.9545 12.2203 77.5145 11.7085 76.0113 11.6078C75.957 11.5929 75.8995 11.5917 75.8445 11.6046C75.7896 11.6174 75.7392 11.6437 75.6984 11.6808C75.6587 11.7202 75.6278 11.7667 75.6075 11.8176C75.5872 11.8686 75.5781 11.9229 75.5805 11.9772V14.5204C75.5727 14.6179 75.6045 14.7144 75.6694 14.7903C75.7343 14.8662 75.8275 14.9157 75.9297 14.9286Z" fill="#C49E69"/>
<path d="M93.5351 26.6948C91.8924 26.4012 90.3416 25.7578 88.9999 24.8131C88.9647 24.7776 88.9222 24.7493 88.875 24.73C88.8279 24.7107 88.777 24.7007 88.7256 24.7007C88.6741 24.7007 88.6233 24.7107 88.5761 24.73C88.5289 24.7493 88.4864 24.7776 88.4512 24.8131L86.4648 26.9611C86.428 26.9935 86.4 27.0339 86.3834 27.0788C86.3668 27.1237 86.3621 27.1718 86.3696 27.2189C86.3822 27.3171 86.4303 27.4081 86.5056 27.4766C87.4017 28.1972 88.4137 28.7773 89.5033 29.195C90.7549 29.685 92.0836 29.9753 93.4353 30.0542C93.4883 30.0694 93.5445 30.0723 93.599 30.0626C93.6534 30.0528 93.7046 30.0308 93.7482 29.9983C93.7886 29.964 93.8201 29.9214 93.8406 29.8737C93.861 29.8261 93.8697 29.7747 93.8661 29.7234V27.0685C93.8718 27.0231 93.8675 26.9771 93.8537 26.9333C93.8399 26.8896 93.8168 26.8489 93.7858 26.8139C93.7548 26.7789 93.7165 26.7503 93.6734 26.7298C93.6303 26.7093 93.5832 26.6974 93.5351 26.6948Z" fill="#C49E69"/>
<path d="M95.7527 14.851C97.1509 15.0367 98.4913 15.5024 99.6847 16.2171C99.9432 16.3417 100.138 16.3159 100.27 16.1441L101.907 14.1164C101.957 14.0186 101.983 13.9115 101.984 13.8028C101.986 13.7528 101.973 13.7032 101.945 13.6604C101.918 13.6176 101.878 13.5834 101.83 13.5622C101.02 13.0092 100.127 12.5747 99.1813 12.2734C98.0858 11.9192 96.9476 11.697 95.7936 11.6119C95.747 11.598 95.6974 11.5959 95.6497 11.6056C95.602 11.6154 95.5578 11.6368 95.5214 11.6677C95.48 11.7012 95.4476 11.7437 95.4271 11.7916C95.4066 11.8394 95.3985 11.8912 95.4035 11.9427V14.4987C95.4054 14.588 95.4422 14.6734 95.5067 14.7384C95.5712 14.8035 95.6588 14.8436 95.7527 14.851Z" fill="#C49E69"/>
<path d="M96.687 18.9839L94.6643 18.7949C93.4549 18.6746 92.6235 18.4598 92.17 18.1505C91.9414 18.0019 91.7567 17.8003 91.6337 17.5649C91.5106 17.3295 91.4532 17.0682 91.467 16.8058C91.4531 16.3651 91.615 15.9356 91.9206 15.603C92.2844 15.243 92.7619 15.0048 93.2811 14.9242C93.3472 14.9169 93.4125 14.904 93.4761 14.8856C93.5638 14.8688 93.6452 14.8303 93.7119 14.7739C93.7603 14.7403 93.7996 14.6963 93.8264 14.6455C93.8532 14.5947 93.8668 14.5385 93.8661 14.4817V11.9214C93.8679 11.8769 93.86 11.8326 93.8428 11.7912C93.8256 11.7498 93.7996 11.7122 93.7664 11.6808C93.7333 11.6506 93.6942 11.627 93.6514 11.6115C93.6085 11.596 93.5628 11.5889 93.5169 11.5906H93.4353C91.4882 11.7624 89.9765 12.3352 88.9002 13.3089C88.3672 13.8001 87.9495 14.3921 87.6744 15.0465C87.3994 15.7009 87.2731 16.4028 87.3038 17.1066C87.2772 17.7728 87.4019 18.4366 87.6694 19.0533C87.937 19.6699 88.3413 20.2249 88.8548 20.6808C89.8525 21.5657 91.3249 22.107 93.272 22.3047L95.2992 22.4894C95.972 22.5247 96.6354 22.655 97.2675 22.876C97.6465 23.0055 97.9775 23.2369 98.2198 23.5419C98.415 23.8467 98.5097 24.1997 98.4919 24.5557C98.4984 24.8334 98.4408 25.1091 98.3233 25.3635C98.2059 25.618 98.0313 25.8452 97.8117 26.0292C97.2417 26.4684 96.5406 26.7269 95.8072 26.7681C95.7542 26.761 95.7001 26.7656 95.6494 26.7816C95.5986 26.7976 95.5525 26.8246 95.5146 26.8605C95.4768 26.8963 95.4483 26.94 95.4313 26.9881C95.4144 27.0362 95.4096 27.0874 95.4171 27.1376V29.7152C95.4155 29.7592 95.4231 29.8031 95.4394 29.8444C95.4558 29.8857 95.4806 29.9235 95.5124 29.9557C95.5461 29.9863 95.5859 30.01 95.6296 30.0255C95.6732 30.041 95.7198 30.048 95.7663 30.0459H95.8434C98.0263 29.8999 99.7134 29.3042 100.905 28.2588C101.498 27.7355 101.966 27.0968 102.275 26.3865C102.584 25.6762 102.728 24.911 102.696 24.1433C102.726 23.4854 102.611 22.8287 102.356 22.216C102.101 21.6032 101.713 21.048 101.218 20.5863C100.232 19.6784 98.7217 19.1443 96.687 18.9839Z" fill="#C49E69"/>
<path d="M115.245 15.0015C115.308 14.9292 115.342 14.8377 115.34 14.7437V12.3079C115.347 12.2577 115.343 12.2065 115.326 12.1584C115.309 12.1103 115.28 12.0666 115.242 12.0308C115.205 11.9949 115.158 11.9679 115.108 11.9519C115.057 11.9359 115.003 11.9313 114.95 11.9385H112.147C112.115 11.9429 112.083 11.9402 112.052 11.9305C112.022 11.9208 111.994 11.9044 111.971 11.8826C111.949 11.8608 111.932 11.8343 111.922 11.8052C111.913 11.776 111.911 11.7452 111.916 11.7151V6.84776C111.919 6.79794 111.913 6.74795 111.895 6.70072C111.878 6.6535 111.851 6.61001 111.816 6.57282C111.777 6.53886 111.731 6.51292 111.681 6.49665C111.632 6.48038 111.579 6.47413 111.526 6.47831H107.979C107.879 6.47597 107.782 6.50976 107.707 6.57282C107.667 6.60699 107.635 6.64957 107.614 6.69725C107.594 6.74493 107.585 6.79643 107.589 6.84776V11.7151C107.595 11.7452 107.593 11.776 107.583 11.8052C107.573 11.8343 107.556 11.8608 107.534 11.8826C107.511 11.9044 107.484 11.9208 107.453 11.9305C107.423 11.9402 107.39 11.9429 107.358 11.9385H105.916C105.816 11.9361 105.719 11.9699 105.644 12.033C105.603 12.0671 105.571 12.1097 105.551 12.1574C105.531 12.2051 105.522 12.2566 105.526 12.3079V14.7437C105.526 14.792 105.537 14.8397 105.557 14.884C105.577 14.9284 105.607 14.9683 105.644 15.0015C105.679 15.036 105.721 15.0633 105.768 15.0818C105.815 15.1003 105.865 15.1095 105.916 15.1089H114.95C115.004 15.1128 115.059 15.1053 115.11 15.0867C115.161 15.0681 115.207 15.039 115.245 15.0015Z" fill="#C49E69"/>
<path d="M115.245 29.7923C115.308 29.72 115.342 29.6285 115.34 29.5346V26.6219C115.349 26.5716 115.344 26.52 115.328 26.4714C115.311 26.4229 115.283 26.3788 115.245 26.3427C115.207 26.3066 115.16 26.2796 115.109 26.264C115.058 26.2483 115.003 26.2443 114.95 26.2525H114.174C113.34 26.2525 112.759 26.0978 112.419 25.7885C112.079 25.4792 111.916 24.9293 111.916 24.0701V16.767C111.922 16.6652 111.887 16.565 111.816 16.4878C111.776 16.4554 111.73 16.4308 111.68 16.4153C111.631 16.3998 111.578 16.3938 111.526 16.3976H107.979C107.88 16.3957 107.784 16.4277 107.707 16.4878C107.667 16.523 107.635 16.5664 107.615 16.6147C107.594 16.663 107.586 16.7151 107.589 16.767V24.2205C107.546 25.3338 107.738 26.444 108.156 27.4854C108.503 28.2846 109.149 28.9346 109.97 29.3112C111.018 29.7459 112.156 29.9486 113.299 29.904H114.932C114.99 29.9102 115.048 29.9033 115.102 29.8838C115.157 29.8644 115.206 29.8331 115.245 29.7923Z" fill="#C49E69"/>
<path d="M123.83 5.90682H120.147C120.048 5.90493 119.951 5.93695 119.875 5.99703C119.835 6.03226 119.803 6.07563 119.783 6.12396C119.762 6.17229 119.753 6.22433 119.757 6.27627V9.41231C119.759 9.50958 119.801 9.6022 119.875 9.67006C119.91 9.70459 119.953 9.73192 119.999 9.75039C120.046 9.76886 120.096 9.77807 120.147 9.77746H123.848C123.902 9.78207 123.956 9.77477 124.006 9.75613C124.057 9.73749 124.102 9.70803 124.138 9.67006C124.203 9.5984 124.239 9.50683 124.238 9.41231V6.29345C124.245 6.24326 124.241 6.19209 124.224 6.14399C124.207 6.09589 124.178 6.05219 124.14 6.01634C124.102 5.98048 124.056 5.95348 124.006 5.93745C123.955 5.92142 123.901 5.91682 123.848 5.924L123.83 5.90682Z" fill="#C49E69"/>
<path d="M123.775 11.9214H120.192C120.092 11.9191 119.995 11.9528 119.92 12.0159C119.88 12.0501 119.848 12.0926 119.828 12.1403C119.807 12.188 119.799 12.2395 119.802 12.2908V29.3328C119.806 29.4298 119.848 29.5219 119.92 29.5905C119.993 29.6591 120.09 29.6991 120.192 29.7023H123.775C123.829 29.706 123.884 29.6979 123.934 29.6785C123.984 29.6592 124.029 29.6291 124.065 29.5906C124.132 29.5198 124.168 29.4276 124.165 29.3328V12.308C124.175 12.2567 124.172 12.2039 124.156 12.154C124.14 12.1041 124.112 12.0584 124.074 12.0207C124.036 11.983 123.989 11.9544 123.937 11.9371C123.885 11.9199 123.83 11.9145 123.775 11.9214Z" fill="#C49E69"/>
<path d="M20.2883 5.90689H16.5877C16.4885 5.905 16.3919 5.93703 16.3156 5.99711C16.2751 6.03234 16.2435 6.07571 16.2231 6.12404C16.2027 6.17236 16.194 6.22441 16.1976 6.27634V9.41238C16.1996 9.50966 16.242 9.60228 16.3156 9.67014C16.3508 9.70466 16.3931 9.732 16.4399 9.75047C16.4867 9.76894 16.537 9.77815 16.5877 9.77754H20.2883C20.3421 9.7815 20.3962 9.77389 20.4464 9.75529C20.4967 9.7367 20.5418 9.70759 20.5786 9.67014C20.6391 9.59632 20.6725 9.50583 20.6738 9.41238V6.29353C20.6815 6.19227 20.6474 6.09212 20.5786 6.01429C20.5403 5.97887 20.4948 5.9511 20.445 5.93265C20.3951 5.9142 20.3418 5.90544 20.2883 5.90689Z" fill="#C49E69"/>
<path d="M20.2067 11.9214H16.6239C16.524 11.9199 16.4271 11.9536 16.3518 12.0159C16.3118 12.0503 16.2806 12.0931 16.261 12.1408C16.2413 12.1885 16.2336 12.2399 16.2385 12.2909V29.3329C16.2378 29.3809 16.2475 29.4285 16.267 29.4729C16.2865 29.5172 16.3154 29.5573 16.3518 29.5906C16.387 29.6256 16.4292 29.6534 16.4759 29.6726C16.5227 29.6918 16.573 29.7019 16.6239 29.7023H20.2067C20.2615 29.7058 20.3165 29.6975 20.3675 29.6782C20.4185 29.6589 20.4643 29.629 20.5015 29.5906C20.5649 29.5184 20.5987 29.4269 20.5967 29.3329V12.3081C20.6043 12.2579 20.5994 12.2067 20.5825 12.1586C20.5656 12.1105 20.5371 12.0668 20.4992 12.031C20.4614 11.9951 20.4152 11.9681 20.3645 11.9521C20.3137 11.936 20.2597 11.9314 20.2067 11.9386V11.9214Z" fill="#C49E69"/>
<path d="M133.753 11.9212H130.17C130.07 11.9188 129.972 11.9526 129.898 12.0157C129.856 12.0492 129.824 12.0917 129.803 12.1395C129.783 12.1874 129.775 12.2392 129.78 12.2906V29.3326C129.779 29.3811 129.789 29.4291 129.809 29.4736C129.83 29.518 129.86 29.5579 129.898 29.5904C129.933 29.6255 129.975 29.6535 130.022 29.6727C130.068 29.6919 130.119 29.7019 130.17 29.7021H133.753C133.807 29.7055 133.861 29.6972 133.911 29.6779C133.961 29.6585 134.006 29.6286 134.043 29.5904C134.106 29.5181 134.14 29.4266 134.138 29.3326V12.3078C134.142 12.2583 134.136 12.2084 134.12 12.1612C134.103 12.114 134.077 12.0704 134.043 12.0329C134.006 11.9958 133.96 11.9667 133.91 11.9474C133.86 11.9282 133.806 11.9192 133.753 11.9212Z" fill="#C49E69"/>
<path d="M142.483 12.6042C142.028 12.2499 141.506 11.9802 140.945 11.8095C140.36 11.6253 139.748 11.5324 139.131 11.5346C138.014 11.4911 136.906 11.7456 135.934 12.2692C135.845 12.3168 135.773 12.3873 135.724 12.4725C135.676 12.5576 135.655 12.6539 135.662 12.7503V15.6286C135.656 15.6687 135.659 15.7097 135.673 15.7481C135.686 15.7866 135.709 15.8214 135.74 15.8499C135.77 15.8784 135.808 15.8996 135.848 15.9119C135.889 15.9242 135.932 15.9272 135.975 15.9207L136.129 15.8863C136.795 15.6186 137.509 15.4728 138.233 15.4568C138.593 15.4816 138.948 15.5554 139.285 15.6758C139.674 15.824 140.051 15.9977 140.415 16.1957C140.458 16.2407 140.514 16.2719 140.577 16.285C140.639 16.2981 140.705 16.2924 140.764 16.2687C140.837 16.2359 140.903 16.1892 140.957 16.1316C141.01 16.074 141.051 16.0066 141.077 15.9336L142.596 13.094C142.623 13.0551 142.642 13.0113 142.651 12.9653C142.661 12.9193 142.66 12.872 142.649 12.8263C142.639 12.7805 142.618 12.7373 142.59 12.6992C142.561 12.661 142.525 12.6287 142.483 12.6042Z" fill="#C49E69"/>
<path d="M44.4333 29.4145V17.9358C44.4335 17.7796 44.3969 17.6253 44.3263 17.4841C44.2557 17.3429 44.1529 17.2184 44.0251 17.1196L36.5694 11.4059C36.3502 11.2382 36.0781 11.1445 35.7963 11.1398C35.5145 11.1352 35.2391 11.2197 35.0139 11.3802L32.1658 13.4165C32.1255 13.4446 32.0929 13.4816 32.0708 13.5242C32.0487 13.5668 32.0377 13.6139 32.0388 13.6613V17.6694C32.0384 17.7264 32.0548 17.7824 32.0863 17.831C32.1178 17.8796 32.163 17.9189 32.2168 17.9444C32.2706 17.9699 32.3309 17.9806 32.3909 17.9753C32.4508 17.97 32.5079 17.9488 32.5558 17.9143L34.9141 16.2174C35.1405 16.059 35.4159 15.976 35.6973 15.9815C35.9787 15.9869 36.2502 16.0804 36.4696 16.2475L39.9934 18.9539C40.1213 19.0517 40.2243 19.1754 40.295 19.3159C40.3656 19.4564 40.402 19.6102 40.4016 19.7659V29.4102C40.401 29.4507 40.4089 29.4908 40.4248 29.5283C40.4407 29.5658 40.4643 29.5999 40.4943 29.6287C40.5242 29.6575 40.5599 29.6803 40.5993 29.6959C40.6387 29.7115 40.6809 29.7196 40.7236 29.7196H44.1113C44.1967 29.7196 44.2786 29.6874 44.339 29.6302C44.3994 29.573 44.4333 29.4954 44.4333 29.4145Z" fill="#C49E69"/>
<path d="M30.2157 11.921H26.633C26.5329 11.9187 26.4356 11.9525 26.3608 12.0155C26.3202 12.0497 26.2885 12.0923 26.268 12.14C26.2476 12.1876 26.239 12.2391 26.2429 12.2905V29.3325C26.2463 29.4294 26.2885 29.5215 26.3609 29.5901C26.4334 29.6587 26.5306 29.6987 26.633 29.7019H30.2157C30.2705 29.7054 30.3255 29.6971 30.3765 29.6778C30.4275 29.6585 30.4733 29.6285 30.5105 29.5902C30.5739 29.5179 30.6077 29.4264 30.6057 29.3325V12.3076C30.6133 12.2575 30.6084 12.2063 30.5915 12.1582C30.5746 12.1101 30.5461 12.0664 30.5082 12.0305C30.4704 11.9947 30.4243 11.9677 30.3735 11.9516C30.3227 11.9356 30.2687 11.931 30.2157 11.9382V11.921Z" fill="#C49E69"/>
<path d="M10.7691 9.81213e-07H0.873469C0.788071 9.81213e-07 0.706171 0.0321362 0.645785 0.089337C0.5854 0.146538 0.551476 0.224118 0.551476 0.305013V36.9881C0.551476 37.069 0.5854 37.1465 0.645785 37.2037C0.706171 37.2609 0.788071 37.2931 0.873469 37.2931H10.7691C10.8112 37.2931 10.8528 37.2852 10.8916 37.2698C10.9305 37.2544 10.9657 37.2319 10.9952 37.2035C11.0247 37.1751 11.048 37.1414 11.0637 37.1045C11.0794 37.0675 11.0872 37.0279 11.0866 36.9881V33.4353C11.0872 33.3955 11.0794 33.3559 11.0637 33.3189C11.048 33.2819 11.0247 33.2483 10.9952 33.2199C10.9657 33.1915 10.9305 33.169 10.8916 33.1536C10.8528 33.1382 10.8112 33.1303 10.7691 33.1303H5.24986C5.20779 33.1309 5.16602 33.1235 5.12698 33.1087C5.08794 33.0938 5.05241 33.0717 5.02245 33.0438C4.99248 33.0158 4.96869 32.9824 4.95246 32.9457C4.93622 32.9089 4.92786 32.8694 4.92787 32.8296V4.47637C4.92787 4.39548 4.96179 4.3179 5.02218 4.2607C5.08256 4.2035 5.16446 4.17136 5.24986 4.17136H10.7691C10.8112 4.17136 10.8528 4.16345 10.8916 4.14807C10.9305 4.13269 10.9657 4.11015 10.9952 4.08177C11.0247 4.05339 11.048 4.01973 11.0637 3.98275C11.0794 3.94577 11.0872 3.9062 11.0866 3.86635V0.322197C11.0897 0.280937 11.0838 0.239512 11.0692 0.200511C11.0547 0.16151 11.0318 0.125772 11.002 0.0955316C10.9722 0.0652914 10.9361 0.0412003 10.8961 0.0247628C10.856 0.00832532 10.8128 -0.000104686 10.7691 9.81213e-07Z" fill="#C49E69"/>
<path d="M153.811 3.8475e-07H143.902C143.817 3.8475e-07 143.735 0.0321356 143.674 0.0893364C143.614 0.146537 143.58 0.224118 143.58 0.305012V3.85776C143.58 3.93865 143.614 4.01623 143.674 4.07343C143.735 4.13063 143.817 4.16277 143.902 4.16277H149.421C149.507 4.16277 149.589 4.1949 149.649 4.2521C149.709 4.30931 149.743 4.38689 149.743 4.46778V32.821C149.743 32.8609 149.735 32.9003 149.719 32.9371C149.703 32.9739 149.679 33.0072 149.649 33.0352C149.619 33.0632 149.583 33.0852 149.544 33.1001C149.505 33.1149 149.463 33.1223 149.421 33.1217H143.902C143.817 33.1217 143.735 33.1539 143.674 33.2111C143.614 33.2683 143.58 33.3458 143.58 33.4267V36.9795C143.58 37.0604 143.614 37.138 143.674 37.1952C143.735 37.2524 143.817 37.2845 143.902 37.2845H153.811C153.897 37.2845 153.979 37.2524 154.039 37.1952C154.099 37.138 154.133 37.0604 154.133 36.9795V0.322196C154.136 0.280719 154.129 0.239202 154.114 0.20019C154.099 0.161177 154.076 0.125491 154.046 0.0953228C154.016 0.0651542 153.979 0.041139 153.939 0.0247475C153.899 0.00835596 153.855 -6.55983e-05 153.811 3.8475e-07Z" fill="#C49E69"/>
<path d="M39.3902 38.3714C39.0099 38.0268 38.5614 37.7567 38.0705 37.5767C37.5441 37.3843 36.984 37.2881 36.4197 37.2932H33.295V44.8927H36.4424C37.0019 44.8988 37.5575 44.804 38.0796 44.6135C38.5696 44.4378 39.0166 44.1693 39.3932 43.8243C39.7699 43.4794 40.0682 43.0652 40.2701 42.6072C40.6875 41.6349 40.6875 40.5466 40.2701 39.5743C40.0667 39.1206 39.7673 38.7112 39.3902 38.3714ZM38.6601 42.4096C38.4514 42.7728 38.1364 43.0711 37.7531 43.2688C37.3358 43.4825 36.8668 43.5891 36.3925 43.5781H34.8415V38.5948H36.3925C36.8668 38.5838 37.3358 38.6905 37.7531 38.9041C38.1347 39.104 38.4491 39.4018 38.6601 39.7633C38.8872 40.1582 39.0014 40.6025 38.9912 41.0521C39.0087 41.5284 38.8945 42.0008 38.6601 42.4225V42.4096Z" fill="#C49E69"/>
<path d="M45.0229 37.293L41.7939 44.8925H43.4129L43.9889 43.4791H47.2904L47.8528 44.8925H49.5081L46.2927 37.293H45.0229ZM44.4877 42.2462L45.6487 39.3679L46.7961 42.2462H44.4877Z" fill="#C49E69"/>
<path d="M56.1248 42.2204L52.1067 37.293H51.0228V44.8925H52.5784V39.9951L56.5693 44.8925H57.6895V37.293H56.1248V42.2204Z" fill="#C49E69"/>
<path d="M64.2563 41.0692C64.0326 40.8936 63.7837 40.7489 63.5171 40.6396C63.245 40.5322 62.9774 40.4377 62.7053 40.3518C62.4332 40.2659 62.1883 40.1714 61.9661 40.0812C61.7644 40.0023 61.5798 39.8887 61.4219 39.7461C61.3534 39.6782 61.3001 39.5979 61.265 39.5101C61.2299 39.4223 61.2139 39.3287 61.2178 39.2349C61.2121 39.1242 61.2377 39.0141 61.2919 38.916C61.3461 38.8178 61.427 38.7351 61.5262 38.6764C61.7799 38.5315 62.0739 38.4626 62.3697 38.4788C62.66 38.475 62.9473 38.5353 63.2087 38.6549C63.4844 38.7887 63.7306 38.9709 63.9343 39.1919L64.9593 38.221C64.6592 37.8985 64.2896 37.6407 63.8754 37.4649C63.4226 37.2782 62.9351 37.179 62.4414 37.1731C61.9477 37.1672 61.4577 37.2548 61.0001 37.4306C60.608 37.587 60.2712 37.8463 60.0296 38.1781C59.7859 38.5263 59.6624 38.9376 59.6758 39.3552C59.6638 39.688 59.7337 40.0189 59.8799 40.3217C60.0088 40.5672 60.1949 40.7817 60.4241 40.949C60.652 41.1131 60.9003 41.2501 61.1634 41.3571C61.4355 41.4645 61.7076 41.559 61.9751 41.6406C62.2282 41.7193 62.4765 41.8111 62.7189 41.9155C62.9227 42.0039 63.1061 42.1294 63.2586 42.285C63.3984 42.4433 63.4697 42.6459 63.4581 42.8521C63.4618 42.9772 63.4306 43.101 63.3677 43.2111C63.3048 43.3212 63.2124 43.4137 63.0999 43.4793C62.8098 43.6427 62.4755 43.7219 62.1384 43.7069C61.7417 43.7185 61.3484 43.6342 60.9956 43.4621C60.6732 43.2911 60.3933 43.0568 60.1747 42.7747L59.1452 43.7499C59.4872 44.1442 59.9139 44.4649 60.3969 44.6907C60.9187 44.9109 61.4858 45.018 62.0568 45.0043C62.8287 45.0453 63.5917 44.8312 64.2155 44.3986C64.4741 44.1977 64.6798 43.9425 64.816 43.6531C64.9522 43.3637 65.0152 43.0483 65.0001 42.7318C65.0111 42.3879 64.9414 42.046 64.796 41.7308C64.6718 41.4741 64.4872 41.2478 64.2563 41.0692Z" fill="#C49E69"/>
<path d="M71.1406 37.293H69.5896V44.8925H70.7325H71.1406H74.8186V43.5822H71.1406V37.293Z" fill="#C49E69"/>
<path d="M77.3175 38.1267C77.3202 38.0037 77.2963 37.8816 77.2471 37.7678C77.198 37.654 77.1247 37.551 77.0318 37.4651C76.9457 37.3784 76.8417 37.3096 76.7261 37.263C76.6106 37.2164 76.4861 37.1931 76.3606 37.1945C76.2342 37.1925 76.1089 37.2156 75.9925 37.2622C75.8762 37.3088 75.7714 37.3779 75.6848 37.4651C75.5954 37.5528 75.5253 37.6564 75.4786 37.77C75.4319 37.8836 75.4095 38.0048 75.4127 38.1267C75.4091 38.2354 75.429 38.3437 75.4711 38.4449C75.5132 38.5461 75.5767 38.6381 75.6576 38.7152C75.7609 38.8182 75.893 38.8913 76.0386 38.9257L75.3447 40.1586L76.1202 40.5582L77 39.0245C77.0986 38.8523 77.182 38.6727 77.2494 38.4875C77.2902 38.3709 77.3131 38.2494 77.3175 38.1267Z" fill="#C49E69"/>
<path d="M80.2381 37.293L77.0091 44.8925H78.6281L79.2041 43.4791H82.5056L83.068 44.8925H84.7233L81.5079 37.293H80.2381ZM79.7029 42.2462L80.8639 39.3679L82.0113 42.2462H79.7029Z" fill="#C49E69"/>
<path d="M91.34 42.2204L87.3265 37.293H86.238V44.8925H87.7936V39.9951L91.7845 44.8925H92.9047V37.293H91.34V42.2204Z" fill="#C49E69"/>
<path d="M99.9885 43.445C99.6188 43.5815 99.2242 43.6472 98.8275 43.6383C98.4782 43.6424 98.1314 43.5811 97.8071 43.4579C97.5039 43.3381 97.2305 43.1596 97.0044 42.9338C96.7723 42.7017 96.5932 42.4268 96.4783 42.1262C96.3525 41.7942 96.291 41.4435 96.2969 41.0908C96.2918 40.7382 96.3533 40.3876 96.4783 40.0555C96.591 39.7539 96.7704 39.4785 97.0044 39.2479C97.2292 39.0217 97.503 38.8443 97.8071 38.7281C98.1334 38.6072 98.4818 38.5488 98.8321 38.5562C99.2159 38.548 99.5973 38.6153 99.9522 38.7538C100.259 38.8754 100.535 39.0586 100.76 39.2908L101.812 38.2985C101.44 37.952 101.003 37.6751 100.524 37.4822C99.9868 37.276 99.4113 37.1752 98.8321 37.1858C98.2704 37.1792 97.7133 37.2816 97.1949 37.4865C96.7062 37.6832 96.2614 37.966 95.8842 38.3199C95.508 38.6735 95.2117 39.0959 95.0135 39.5615C94.6139 40.5504 94.6139 41.6442 95.0135 42.6331C95.2115 43.1013 95.5077 43.5266 95.8842 43.8832C96.2609 44.2388 96.7078 44.5205 97.1994 44.7123C97.7172 44.9141 98.2722 45.0163 98.8321 45.013C99.4212 45.0236 100.007 44.9244 100.555 44.7209C101.043 44.5304 101.485 44.25 101.857 43.8961L100.805 42.9037C100.58 43.1409 100.301 43.3261 99.9885 43.445Z" fill="#C49E69"/>
<path d="M105.054 37.293H103.503V44.8925H105.054V37.293Z" fill="#C49E69"/>
<path d="M108.823 41.6405H112.451V40.386H108.823V38.5903H112.796V37.293H108.823H108.41H107.272V44.8925H108.41H108.823H112.85V43.5951H108.823V41.6405Z" fill="#C49E69"/>
<path d="M119.812 42.2204L115.793 37.293H114.71V44.8925H116.265V39.9908L120.256 44.8925H121.376V37.293H119.812V42.2204Z" fill="#C49E69"/>
</g>
<defs>
<clipPath id="clip0_2046_494">
<rect width="153.6" height="45" fill="white" transform="translate(0.533333)"/>
</clipPath>
</defs>
</svg>
