<svg width="100%" height="100%" viewBox="0 0 71 65" fill="none" xmlns="http://www.w3.org/2000/svg">
<path d="M14 23.5L18 17.5L13 7.5H44.5C50.8333 9.33333 63.5 17.1 63.5 33.5C63.5 49.9 50.8333 56.6667 44.5 58H13L21.5 43.5H37.3036L41.25 37H25L30 28.5H50L54 22.5H26L1 64.5H44.5C52.3333 63 70.5 54.7941 70.5 33.5C70.5 12.5 54 3 44.5 1H1L14 23.5Z" fill="white"/>
<path d="M54 22.5C48.5 22.5 29.5 22.5 26 22.5M54 22.5L50 28.5H30L25 37H41.25L37.3036 43.5H21.5L13 58H44.5C50.8333 56.6667 63.5 49.9 63.5 33.5C63.5 17.1 50.8333 9.33333 44.5 7.5H13L18 17.5L14 23.5L1 1H44.5C54 3 70.5 12.5 70.5 33.5C70.5 54.7941 52.3333 63 44.5 64.5H1L26 22.5M54 22.5H26" stroke="white"/>
</svg>
