<svg  width="100%" height="auto" viewBox="0 0 33 33" fill="none" xmlns="http://www.w3.org/2000/svg">
<path d="M15.2402 0.00877726C15.1701 0.015153 14.9469 0.037468 14.746 0.0534074C10.1134 0.471018 5.77407 2.9703 3.02573 6.81168C1.49533 8.94755 0.51651 11.3703 0.146663 13.9366C0.0159417 14.8324 0 15.0969 0 16.3115C0 17.5261 0.0159417 17.7907 0.146663 18.6865C1.03302 24.8104 5.39147 29.9556 11.3026 31.8619C12.3612 32.203 13.4771 32.4357 14.746 32.576C15.2402 32.6302 17.3764 32.6302 17.8706 32.576C20.061 32.3337 21.9166 31.7918 23.7467 30.8577C24.0273 30.7143 24.0815 30.676 24.0432 30.6442C24.0177 30.625 22.8221 29.0215 21.3873 27.0833L18.7793 23.5607L15.5112 18.7247C13.713 16.0661 12.2336 13.8919 12.2209 13.8919C12.2081 13.8887 12.1954 16.0374 12.189 18.661C12.1794 23.2547 12.1762 23.4396 12.1189 23.548C12.036 23.7042 11.9722 23.7679 11.8383 23.8381C11.7363 23.8891 11.647 23.8986 11.1655 23.8986H10.614L10.4673 23.8062C10.3716 23.7456 10.3015 23.6659 10.2537 23.5735L10.1867 23.43L10.1931 17.0384L10.2027 10.6435L10.3015 10.5192C10.3525 10.4522 10.4609 10.3662 10.5374 10.3247C10.6682 10.261 10.7192 10.2546 11.2708 10.2546C11.9212 10.2546 12.0296 10.2801 12.1986 10.465C12.2464 10.516 14.0159 13.181 16.133 16.3912C18.25 19.6014 21.145 23.9847 22.567 26.1365L25.1496 30.048L25.2803 29.962C26.4377 29.2096 27.662 28.1385 28.6312 27.0227C30.6941 24.6542 32.0236 21.766 32.47 18.6865C32.6007 17.7907 32.6167 17.5261 32.6167 16.3115C32.6167 15.0969 32.6007 14.8324 32.47 13.9366C31.5836 7.81267 27.2252 2.66746 21.314 0.761113C20.2714 0.4232 19.1619 0.190486 17.9184 0.0502195C17.6124 0.0183409 15.5049 -0.0167257 15.2402 0.00877726ZM21.9166 9.87203C22.0696 9.94854 22.194 10.0952 22.2386 10.2482C22.2641 10.3311 22.2705 12.1035 22.2641 16.0979L22.2546 21.8297L21.2439 20.2804L20.23 18.7311V14.5646C20.23 11.8708 20.2427 10.3566 20.2619 10.2833C20.3129 10.1047 20.4245 9.96448 20.5775 9.8816C20.7082 9.81465 20.7561 9.80828 21.2566 9.80828C21.7285 9.80828 21.8114 9.81465 21.9166 9.87203Z" fill="#FFFFFF"/>
</svg>
