<svg  width="100%" height="auto" viewBox="0 0 34 33" fill="none" xmlns="http://www.w3.org/2000/svg">
<path d="M24.3036 23.1962C24.4974 21.6387 24.4392 21.4114 25.6402 21.6628L25.9459 21.6892C26.8699 21.7294 28.0781 21.5457 28.7999 21.2278C30.3281 20.5438 31.2342 19.4006 29.7275 19.7013C26.2907 20.3854 26.041 19.2617 26.041 19.2617C29.6716 14.0625 31.1902 7.46301 29.8785 5.84815C26.3062 1.44084 20.1212 3.52513 20.0177 3.58022L19.9844 3.58596C19.3066 3.44823 18.5574 3.36789 17.6893 3.35642C16.1338 3.33346 14.9541 3.75009 14.0575 4.40545C14.0575 4.40545 3.02529 0.0187998 3.53783 9.92261C3.64724 12.0299 6.66542 25.8761 10.2687 21.6869C11.5875 20.1558 12.8599 18.8623 12.8599 18.8623C13.4902 19.2675 14.2477 19.4741 15.0409 19.3995L15.1028 19.349C15.0845 19.5474 15.0929 19.7472 15.1277 19.9435C14.2002 20.9443 14.4737 21.1199 12.6185 21.4883C10.742 21.8614 11.8456 22.5259 12.5638 22.7004C13.4367 22.9115 15.456 23.2099 16.8212 21.3667L16.7665 21.5767C17.1304 21.8579 17.1054 23.5967 17.1589 24.8386C17.2124 26.0804 17.2968 27.2408 17.5597 27.9237C17.8225 28.6066 18.1305 30.3684 20.5683 29.8749C22.6054 29.4536 24.1633 28.8465 24.306 23.2065" fill="black"/>
<path d="M24.3036 23.1962C24.4974 21.6387 24.4392 21.4114 25.6402 21.6628L25.9459 21.6892C26.8699 21.7294 28.0781 21.5457 28.7999 21.2278C30.3281 20.5438 31.2342 19.4006 29.7275 19.7013C26.2907 20.3854 26.041 19.2617 26.041 19.2617C29.6716 14.0625 31.1902 7.46301 29.8785 5.84815C26.3062 1.44084 20.1212 3.52513 20.0177 3.58022L19.9844 3.58596C19.3066 3.44823 18.5574 3.36789 17.6893 3.35642C16.1338 3.33346 14.9541 3.75009 14.0575 4.40545C14.0575 4.40545 3.02529 0.0187998 3.53783 9.92261C3.64724 12.0299 6.66542 25.8761 10.2687 21.6869C11.5875 20.1558 12.8599 18.8623 12.8599 18.8623C13.4902 19.2675 14.2477 19.4741 15.0409 19.3995L15.1028 19.349C15.0845 19.5474 15.0929 19.7472 15.1277 19.9435C14.2002 20.9443 14.4737 21.1199 12.6185 21.4883C10.742 21.8614 11.8456 22.5259 12.5638 22.7004C13.4367 22.9115 15.456 23.2099 16.8212 21.3667L16.7665 21.5767C17.1304 21.8579 17.1054 23.5967 17.1589 24.8386C17.2124 26.0804 17.2968 27.2408 17.5597 27.9237C17.8225 28.6066 18.1305 30.3684 20.5683 29.8749C22.6054 29.4536 24.1633 28.8465 24.306 23.2065" stroke="black" stroke-width="5.3725"/>
<path d="M29.7164 19.7116C26.2796 20.3957 26.0299 19.272 26.0299 19.272C29.6605 14.0728 31.1791 7.47332 29.8686 5.85845C26.2963 1.45115 20.1113 3.53658 20.0078 3.59053L19.9745 3.59627C19.2191 3.44997 18.451 3.37273 17.6806 3.36557C16.1251 3.34262 14.9454 3.75924 14.0488 4.4146C14.0488 4.4146 3.01538 0.0279546 3.52912 9.93177C3.63852 12.039 6.65671 25.8853 10.26 21.6961C11.5871 20.1558 12.8596 18.8623 12.8596 18.8623C13.4898 19.2675 14.2473 19.474 15.0405 19.3994L15.1024 19.3489C15.0842 19.5473 15.0926 19.7472 15.1274 19.9435C14.1998 20.9443 14.4733 21.1199 12.6181 21.4883C10.7416 21.8613 11.8452 22.5259 12.5634 22.7003C13.4363 22.9115 15.4556 23.2099 16.8208 21.3667L16.7661 21.5767C17.13 21.8579 17.3844 23.405 17.3416 24.8076C17.2988 26.2101 17.2703 27.1719 17.5557 27.9248C17.8411 28.6777 18.1265 30.3695 20.5644 29.876C22.6015 29.4548 23.6563 28.361 23.8049 26.5407C23.9096 25.246 24.145 25.4365 24.1617 24.2796L24.352 23.731C24.5696 21.975 24.3876 21.4091 25.6422 21.6731L25.9479 21.6995C26.8719 21.7397 28.0813 21.556 28.79 21.2381C30.3182 20.5541 31.2231 19.4109 29.7164 19.7116Z" fill="#336791"/>
<path d="M16.9672 20.7067C16.8721 23.9732 16.991 27.2626 17.3216 28.0522C17.6522 28.8419 18.3621 30.4051 20.8012 29.9024C22.8383 29.4811 23.5803 28.6651 23.9014 26.8643L24.6542 21.1061M14.0442 4.33196C14.0442 4.33196 3.00366 -0.0248457 3.51739 9.87897C3.62679 11.9862 6.64498 25.8325 10.2482 21.6433C11.5635 20.1133 12.7527 18.9162 12.7527 18.9162M20.0068 3.53658C19.6263 3.65135 26.1478 1.23537 29.8557 5.8068C31.1638 7.42166 29.6476 14.0211 26.017 19.2204" stroke="white" stroke-width="1.79" stroke-linecap="round" stroke-linejoin="round"/>
<path d="M26.0184 19.2181C26.0184 19.2181 26.2562 20.3429 29.7049 19.6565C31.2116 19.3558 30.3043 20.499 28.7773 21.183C27.5239 21.7454 24.7126 21.8889 24.6663 21.1141C24.5474 19.1113 26.1456 19.7196 26.0303 19.2181C25.9256 18.7659 25.2097 18.3229 24.7388 17.2164C24.3262 16.2523 19.0782 8.84944 26.1944 9.94782C26.456 9.89618 24.3392 3.40573 17.6797 3.31162C11.0202 3.2175 11.2307 11.2138 11.2307 11.2138" stroke="white" stroke-width="1.79" stroke-linecap="round" stroke-linejoin="bevel"/>
<path d="M15.1041 19.9045C14.1765 20.9053 14.45 21.0809 12.5948 21.4493C10.7183 21.8223 11.8219 22.4869 12.5401 22.6613C13.413 22.8725 15.4323 23.1709 16.7975 21.3265C17.2137 20.7641 16.7951 19.8689 16.2243 19.6416C15.9484 19.5314 15.5797 19.3937 15.1064 19.9056L15.1041 19.9045Z" stroke="white" stroke-width="1.79" stroke-linejoin="round"/>
<path d="M15.0433 19.8873C14.9481 19.2985 15.2431 18.5996 15.5582 17.7801C16.0315 16.552 17.1232 15.3239 16.2503 11.4251C15.5998 8.52128 11.2319 10.8202 11.2319 11.2139C11.2319 11.6075 11.4293 13.2109 11.1606 15.076C10.8074 17.5115 12.766 19.5705 15.0207 19.3605" stroke="white" stroke-width="1.79" stroke-linecap="round" stroke-linejoin="round"/>
<path d="M14.0035 11.1552C13.9833 11.2894 14.2592 11.6487 14.6171 11.6969C14.9751 11.7451 15.2807 11.465 15.3009 11.3296C15.3211 11.1942 15.0452 11.0473 14.6873 10.9991C14.3293 10.9509 14.0213 11.022 14.0035 11.1552Z" fill="white" stroke="white" stroke-width="0.5975"/>
<path d="M24.9013 10.8809C24.9203 11.0152 24.6456 11.3744 24.2876 11.4226C23.9297 11.4708 23.6217 11.1908 23.6039 11.0553C23.586 10.9199 23.8595 10.773 24.2175 10.7248C24.5754 10.6766 24.8834 10.7478 24.9013 10.8809Z" fill="white" stroke="white" stroke-width="0.2975"/>
<path d="M26.1812 9.95007C26.2406 11.006 25.9457 11.7233 25.9076 12.847C25.8529 14.479 26.7139 16.3476 25.4165 18.2184" stroke="white" stroke-width="1.79" stroke-linecap="round" stroke-linejoin="round"/>
</svg>
