<svg width="100%" height="auto" viewBox="0 0 44 50" fill="none" xmlns="http://www.w3.org/2000/svg">
<path fill-rule="evenodd" clip-rule="evenodd" d="M39.2199 39.6597L15.903 46.3004C15.1907 46.5035 14.5079 45.9101 14.6576 45.2183L22.9875 6.80419C23.1432 6.08622 24.1744 5.97216 24.4998 6.6374L39.923 38.175C40.2138 38.7699 39.882 39.4715 39.2199 39.6597ZM43.2185 38.0933L25.3606 1.57684V1.57605C25.1387 1.12639 24.7946 0.742928 24.3647 0.466329C23.9348 0.18973 23.4352 0.030304 22.9189 0.00495737C21.8321 -0.0559803 20.8585 0.448709 20.3093 1.30769L0.941441 31.5148C0.647206 31.9711 0.494137 32.4987 0.500172 33.0358C0.506207 33.5729 0.671097 34.0972 0.975517 34.5472L10.4428 48.6691C11.0071 49.5121 11.9847 50 13.0009 50C13.2889 50 13.5786 49.9609 13.8633 49.8797L41.3444 42.0531C41.7581 41.9364 42.1409 41.7355 42.467 41.4641C42.7932 41.1926 43.055 40.8569 43.2348 40.4797C43.4122 40.1046 43.5027 39.6968 43.4999 39.2846C43.4971 38.8724 43.4011 38.4661 43.2185 38.0933Z" fill="#0C344B"/>
</svg>
